<svg data-v-d3f97b9e="" xmlns="http://www.w3.org/2000/svg" viewBox="0 0 335.90734703905747 185"><!----><!----><!----><g data-v-d3f97b9e="" id="27b2662a-6db0-4d33-9707-3aa9cd6c4b54" fill="white" transform="matrix(5.7915059834320255,0,0,5.7915059834320255,-2.837842673863605,104.1721953169906)"><path d="M4.49 5.12L4.49 5.12Q5.29 5.12 5.99 5.41L5.99 5.41L5.99 5.41Q6.69 5.70 7.12 6.26L7.12 6.26L7.12 6.26Q7.55 6.82 7.55 7.60L7.55 7.60L7.55 7.60Q7.55 8.53 7.08 9.14L7.08 9.14L7.08 9.14Q6.61 9.74 5.87 10.03L5.87 10.03L5.87 10.03Q5.14 10.32 4.33 10.32L4.33 10.32L4.33 10.32Q4.21 10.32 3.93 10.30L3.93 10.30L3.93 10.30Q3.65 10.29 3.57 10.26L3.57 10.26L3.57 12.75L5.05 13.08L5.05 13.72L0.50 13.72L0.50 13.09L1.68 12.75L1.68 6.08L0.49 5.75L0.49 5.12L4.49 5.12ZM3.57 9.58L3.57 9.58Q3.71 9.62 3.99 9.62L3.99 9.62L3.99 9.62Q4.77 9.62 5.20 9.08L5.20 9.08L5.20 9.08Q5.63 8.54 5.63 7.70L5.63 7.70L5.63 7.70Q5.63 6.93 5.28 6.47L5.28 6.47L5.28 6.47Q4.93 6.01 4.34 6.01L4.34 6.01L4.34 6.01Q3.86 6.01 3.57 6.08L3.57 6.08L3.57 9.58ZM10.07 5.80L10.07 5.80Q9.59 5.80 9.23 5.47L9.23 5.47L9.23 5.47Q8.86 5.14 8.86 4.68L8.86 4.68L8.86 4.68Q8.86 4.20 9.23 3.85L9.23 3.85L9.23 3.85Q9.59 3.50 10.07 3.50L10.07 3.50L10.07 3.50Q10.54 3.50 10.88 3.85L10.88 3.85L10.88 3.85Q11.21 4.20 11.21 4.68L11.21 4.68L11.21 4.68Q11.21 5.15 10.88 5.47L10.88 5.47L10.88 5.47Q10.54 5.80 10.07 5.80L10.07 5.80ZM12.11 13.72L8.04 13.72L8.04 13.02L9.13 12.74L9.13 8.06L8.04 7.91L8.04 7.24L10.40 6.69L11.02 6.69L11.02 12.74L12.11 13.02L12.11 13.72ZM12.74 13.08L16.32 7.85L14.13 7.85L13.78 9.10L13.12 9.10L12.87 6.83L18.35 6.83L18.68 7.49L15.08 12.73L17.44 12.73L17.95 11.44L18.65 11.44L18.49 13.72L13.05 13.72L12.74 13.08ZM19.46 13.08L23.04 7.85L20.85 7.85L20.50 9.10L19.84 9.10L19.59 6.83L25.07 6.83L25.40 7.49L21.80 12.73L24.16 12.73L24.67 11.44L25.37 11.44L25.21 13.72L19.77 13.72L19.46 13.08ZM28.99 7.76L28.99 7.76Q28.46 7.76 27.99 7.92L27.99 7.92L27.68 9.10L26.85 9.10L26.61 7.21L26.61 7.21Q28.01 6.69 29.51 6.69L29.51 6.69L29.51 6.69Q30.65 6.69 31.21 7.07L31.21 7.07L31.21 7.07Q31.78 7.45 31.78 8.44L31.78 8.44L31.78 12.56L32.87 12.95L32.87 13.55L32.87 13.55Q32.31 13.69 32.00 13.74L32.00 13.74L32.00 13.74Q31.70 13.79 31.33 13.79L31.33 13.79L31.33 13.79Q30.84 13.79 30.44 13.60L30.44 13.60L30.44 13.60Q30.04 13.41 29.93 13.05L29.93 13.05L29.93 13.05Q29.37 13.47 28.90 13.66L28.90 13.66L28.90 13.66Q28.42 13.86 27.86 13.86L27.86 13.86L27.86 13.86Q27.09 13.86 26.65 13.40L26.65 13.40L26.65 13.40Q26.21 12.94 26.21 12.14L26.21 12.14L26.21 12.14Q26.21 11.47 26.62 10.89L26.62 10.89L26.62 10.89Q27.03 10.30 28 10.11L28 10.11L29.89 9.72L29.89 8.74L29.89 8.74Q29.89 8.19 29.69 7.97L29.69 7.97L29.69 7.97Q29.48 7.76 28.99 7.76L28.99 7.76ZM29.05 10.74L29.05 10.74Q28.50 10.88 28.28 11.17L28.28 11.17L28.28 11.17Q28.06 11.47 28.06 11.94L28.06 11.94L28.06 11.94Q28.06 12.73 28.78 12.73L28.78 12.73L28.78 12.73Q29.05 12.73 29.36 12.61L29.36 12.61L29.36 12.61Q29.68 12.49 29.89 12.35L29.89 12.35L29.89 10.53L29.05 10.74ZM40.71 9.18L40.71 9.18Q41.83 9.34 42.39 9.91L42.39 9.91L42.39 9.91Q42.94 10.49 42.94 11.35L42.94 11.35L42.94 11.35Q42.94 12.45 42.08 13.08L42.08 13.08L42.08 13.08Q41.22 13.72 39.54 13.72L39.54 13.72L35.84 13.72L35.84 13.09L37.02 12.75L37.02 6.08L35.83 5.75L35.83 5.12L39.66 5.12L39.66 5.12Q42.71 5.12 42.71 7.22L42.71 7.22L42.71 7.22Q42.71 8.01 42.16 8.52L42.16 8.52L42.16 8.52Q41.61 9.03 40.71 9.18L40.71 9.18ZM39.31 8.92L39.31 8.92Q39.96 8.92 40.39 8.55L40.39 8.55L40.39 8.55Q40.82 8.19 40.82 7.28L40.82 7.28L40.82 7.28Q40.82 6.62 40.50 6.30L40.50 6.30L40.50 6.30Q40.17 5.98 39.59 5.98L39.59 5.98L39.59 5.98Q39.35 5.98 39.16 6.02L39.16 6.02L39.16 6.02Q38.96 6.06 38.91 6.08L38.91 6.08L38.91 8.92L39.31 8.92ZM38.91 12.75L38.91 12.75Q39.17 12.84 39.59 12.84L39.59 12.84L39.59 12.84Q40.24 12.84 40.61 12.45L40.61 12.45L40.61 12.45Q40.99 12.05 40.99 11.27L40.99 11.27L40.99 11.27Q40.99 10.49 40.51 10.08L40.51 10.08L40.51 10.08Q40.03 9.67 39.28 9.67L39.28 9.67L38.91 9.67L38.91 12.75ZM47.42 6.69L47.42 6.69Q49.21 6.69 50.06 7.69L50.06 7.69L50.06 7.69Q50.90 8.68 50.90 10.30L50.90 10.30L50.90 10.30Q50.90 11.87 50.05 12.87L50.05 12.87L50.05 12.87Q49.20 13.86 47.42 13.86L47.42 13.86L47.42 13.86Q45.68 13.86 44.84 12.87L44.84 12.87L44.84 12.87Q43.99 11.87 43.99 10.30L43.99 10.30L43.99 10.30Q43.99 8.68 44.82 7.69L44.82 7.69L44.82 7.69Q45.65 6.69 47.42 6.69L47.42 6.69ZM48.87 10.28L48.87 10.28Q48.87 9.00 48.55 8.32L48.55 8.32L48.55 8.32Q48.23 7.63 47.39 7.63L47.39 7.63L47.39 7.63Q46.61 7.63 46.31 8.32L46.31 8.32L46.31 8.32Q46.02 9.00 46.02 10.28L46.02 10.28L46.02 10.28Q46.02 11.54 46.33 12.22L46.33 12.22L46.33 12.22Q46.65 12.91 47.47 12.91L47.47 12.91L47.47 12.91Q48.29 12.91 48.58 12.23L48.58 12.23L48.58 12.23Q48.87 11.55 48.87 10.28L48.87 10.28ZM58.49 12.91L58.49 13.72L54.98 13.72L54.98 12.94L55.55 12.81L54.54 11.41L53.65 12.80L54.28 12.94L54.28 13.72L51.11 13.72L51.11 12.98L52.15 12.70L53.77 10.33L51.94 7.77L51.28 7.56L51.28 6.83L54.42 6.83L54.42 7.59L53.90 7.69L54.95 9.14L55.82 7.77L55.20 7.59L55.20 6.83L58.18 6.83L58.18 7.60L57.41 7.74L55.72 10.23L57.50 12.71L58.49 12.91Z"></path></g><!----><g data-v-d3f97b9e="" id="3f655689-c251-46a7-b524-cc19fe7efa15" transform="matrix(1.1127666897243924,0,0,1.1127666897243924,112.59256892597962,0.2960165456773609)" stroke="none" fill="white"><path d="M10.276 56.174c2.4-10.441 7.475-20.415 15.269-28.844 8.612-9.314 19.366-15.465 30.802-18.397L51.829-.153C39.364 3.429 27.688 10.355 18.238 20.574 9.759 29.745 4.067 40.499 1.11 51.794L1 51.746l.328 8.372 9.245 3.629-.297-7.573z"></path><path d="M98.585 99.996l-.239-6.114-.233-.102-39.836-80.095c-10.571 2.826-20.495 8.575-28.472 17.202-7.278 7.872-12.041 17.174-14.334 26.914l-.294-.044-.177.391V58h.193l.408 8.051 82.984 33.945zM75.884 71.131c1.83-.071 3.378 1.551 3.459 3.624.081 2.072-1.335 3.811-3.164 3.882-1.83.071-3.378-1.551-3.459-3.623s1.336-3.811 3.164-3.883zM62.367 39.168c3.826-.15 7.057 2.951 7.211 6.926.155 3.975-2.822 7.318-6.647 7.469-3.829.149-7.059-2.952-7.214-6.927-.156-3.975 2.821-7.319 6.65-7.468zm-16.258-6.88c1.829-.071 3.378 1.551 3.459 3.621.081 2.073-1.336 3.812-3.165 3.883-1.829.072-3.377-1.551-3.459-3.623-.081-2.071 1.336-3.809 3.165-3.881zM36.975 42.75c3.435-.135 6.33 2.63 6.469 6.171.139 3.543-2.532 6.524-5.966 6.659-3.435.134-6.33-2.63-6.469-6.172-.139-3.543 2.532-6.524 5.966-6.658z"></path></g><!----></svg>