<svg data-v-d3f97b9e="" xmlns="http://www.w3.org/2000/svg" viewBox="0 0 58.46388704574559 60"><!----><!----><!----><!----><g data-v-d3f97b9e="" id="fc525fab-4239-4ac7-a5b6-206ed2fe6f8a" transform="matrix(0.5991073176640336,0,0,0.5991073176640336,-0.5991077100436613,0.09166329270548346)" stroke="none" fill="white"><path d="M10.276 56.174c2.4-10.441 7.475-20.415 15.269-28.844 8.612-9.314 19.366-15.465 30.802-18.397L51.829-.153C39.364 3.429 27.688 10.355 18.238 20.574 9.759 29.745 4.067 40.499 1.11 51.794L1 51.746l.328 8.372 9.245 3.629-.297-7.573z"></path><path d="M98.585 99.996l-.239-6.114-.233-.102-39.836-80.095c-10.571 2.826-20.495 8.575-28.472 17.202-7.278 7.872-12.041 17.174-14.334 26.914l-.294-.044-.177.391V58h.193l.408 8.051 82.984 33.945zM75.884 71.131c1.83-.071 3.378 1.551 3.459 3.624.081 2.072-1.335 3.811-3.164 3.882-1.83.071-3.378-1.551-3.459-3.623s1.336-3.811 3.164-3.883zM62.367 39.168c3.826-.15 7.057 2.951 7.211 6.926.155 3.975-2.822 7.318-6.647 7.469-3.829.149-7.059-2.952-7.214-6.927-.156-3.975 2.821-7.319 6.65-7.468zm-16.258-6.88c1.829-.071 3.378 1.551 3.459 3.621.081 2.073-1.336 3.812-3.165 3.883-1.829.072-3.377-1.551-3.459-3.623-.081-2.071 1.336-3.809 3.165-3.881zM36.975 42.75c3.435-.135 6.33 2.63 6.469 6.171.139 3.543-2.532 6.524-5.966 6.659-3.435.134-6.33-2.63-6.469-6.172-.139-3.543 2.532-6.524 5.966-6.658z"></path></g><!----></svg>